<?xml version="1.0" encoding="utf-8"?>
<!-- Generator: Adobe Illustrator 19.0.0, SVG Export Plug-In . SVG Version: 6.00 Build 0)  -->
<svg version="1.1" id="Capa_1" xmlns="http://www.w3.org/2000/svg" xmlns:xlink="http://www.w3.org/1999/xlink" x="0px" y="0px"
	 viewBox="0 0 670 228" style="enable-background:new 0 0 670 228;" xml:space="preserve">
<style type="text/css">
	.st0{fill:#2D2624;}
	.st1{fill:url(#XMLID_183_);}
	.st2{fill:#FFFFFF;}
	.st3{fill:url(#XMLID_184_);}
</style>
<g id="XMLID_2_">
	<g id="XMLID_68_">
		<path id="XMLID_71_" class="st0" d="M91.8,40.5c-8.2,0-14.9,9.9-14.9,22.1c0,10.7,5.1,19.6,11.9,21.7c0.2,2.9,0.2,6.1,0.2,9.9
			c0,24.6-3.8,60.3,2.8,60.3c6.5,0,3.3-35.7,3.3-60.3c0-3.8,0.1-7.2,0.2-10c6.5-2.3,11.3-11,11.3-21.5
			C106.7,50.3,100,40.5,91.8,40.5z"/>
		<path id="XMLID_70_" class="st0" d="M124.5,84.8V23.7c-12.8,8.3-13.8,44-11.7,54.3c0.9,4.5,3.3,7.2,5.6,8.7
			c-0.5,24.7-3.2,59.4,2.8,59.4C127.8,146.2,124.5,109.4,124.5,84.8L124.5,84.8z"/>
		<path id="XMLID_69_" class="st0" d="M147.8,41.5h-1c0,0,1.7,27.9-0.6,27.9c-2.2,0-2.5-27.9-2.5-27.9H143c0,0,1.2,28.2-1,28.2
			c-2.2,0-1-28.2-1-28.2h-0.8c0,0-0.3,27.9-2.5,27.9s-0.6-27.9-0.6-27.9h-1c0,0-5.7,34.2-2.7,37.1c3.1,3,5.3,5.5,5.3,8.6l0.3,7.8
			c0,24.6-3.8,60.3,2.8,60.3c6.5,0,3.3-35.7,3.3-60.3l0.2-7.8c0-3.1,2.1-5.7,5.1-8.7C153.5,75.6,147.8,41.5,147.8,41.5z"/>
	</g>
	<g id="XMLID_3_">
		<g id="XMLID_65_">
			
				<linearGradient id="XMLID_183_" gradientUnits="userSpaceOnUse" x1="67.9853" y1="226.9847" x2="166.0029" y2="325.0023" gradientTransform="matrix(1 0 0 -1 0 420)">
				<stop  offset="0" style="stop-color:#7D1E1A"/>
				<stop  offset="0.205" style="stop-color:#AC3633"/>
				<stop  offset="0.4022" style="stop-color:#D95253"/>
				<stop  offset="0.5" style="stop-color:#EB6062"/>
				<stop  offset="0.5978" style="stop-color:#D95253"/>
				<stop  offset="0.795" style="stop-color:#AC3633"/>
				<stop  offset="1" style="stop-color:#7D1E1A"/>
			</linearGradient>
			<path id="XMLID_67_" class="st1" d="M201.8,144c0-15.1-10.5-27.7-24.5-31.1c-13.7-12.6-35.6-20.8-60.2-20.8
				c-24.6,0-46.4,8.2-60.1,20.8c-14.2,3.3-24.7,16-24.7,31.1c0,15.2,10.6,27.9,24.7,31.1c13.7,12.6,35.5,20.8,60.1,20.8
				s46.4-8.2,60.2-20.8C191.3,171.7,201.8,159.1,201.8,144z"/>
			<path id="XMLID_66_" class="st2" d="M117.1,190.8c-22.1,0-43-7.2-56.2-19.2c-0.5-0.5-1.1-0.8-1.8-1
				c-12.4-2.9-21.2-13.8-21.2-26.6s8.7-23.7,21.2-26.6c0.7-0.2,1.3-0.5,1.8-1c13.1-12,34.1-19.2,56.2-19.2s43.1,7.2,56.2,19.3
				c0.5,0.5,1.1,0.8,1.8,1c12.3,2.9,21,13.9,21,26.5s-8.6,23.6-21,26.5c-0.7,0.2-1.3,0.5-1.8,1C160.1,183.6,139.1,190.8,117.1,190.8
				z"/>
		</g>
		<g id="XMLID_4_">
			<g id="XMLID_47_">
				<path id="XMLID_64_" class="st0" d="M61.9,127.6h6.4c0,0.6,0.1,1,0.4,1.4l4.1,5.1l4.4-5.3c0.2-0.3,0.4-0.5,0.4-0.7
					c0.1-0.2,0.1-0.4,0.1-0.5h4.9c-0.8,1.5-1.2,3.1-1.2,4.8v6.5c0,2.5,0.2,4.1,0.6,5h-5.4c0.4-0.9,0.6-2.5,0.6-5v-4.8l-4.2,5.6
					l-4.3-5.6v4.8c0,2.1,0.2,3.8,0.6,5h-5.5c0.4-1.1,0.6-2.8,0.6-5v-8.7L61.9,127.6z"/>
				<path id="XMLID_61_" class="st0" d="M94,137.5c0,0.4-0.1,0.9-0.2,1.5h-6c0.2,0.7,0.5,1.3,1.1,1.8c0.6,0.5,1.3,0.7,2.1,0.7
					c0.6,0,1.1-0.1,1.5-0.2c0.5-0.2,1-0.4,1.5-0.7l-1.4,3.3c-0.8,0.2-1.5,0.3-2.3,0.3c-2,0-3.6-0.5-4.8-1.5c-1.2-1-1.8-2.5-1.8-4.4
					c0-1.8,0.5-3.2,1.6-4.3c1.1-1.1,2.4-1.7,4-1.7c1.4,0,2.5,0.5,3.4,1.4C93.6,134.6,94,135.9,94,137.5z M89.2,134.6
					c-0.5,0-0.9,0.2-1.1,0.6c-0.3,0.4-0.4,0.9-0.5,1.7h2.9C90.6,135.3,90.1,134.6,89.2,134.6z"/>
				<path id="XMLID_60_" class="st0" d="M95,132.6h4.4v2.1l2.2-2.2c0.5-0.1,0.8-0.1,1.1-0.1c1.1,0,1.9,0.3,2.5,1
					c0.6,0.6,0.9,1.6,0.9,2.7v5.1c0,0.9,0.2,1.8,0.6,2.8h-5c0.4-1.1,0.6-2.1,0.6-2.8v-3.4c0-1.1-0.1-1.7-0.4-2s-0.6-0.4-1.1-0.4
					c-0.4,0-0.8,0.1-1.2,0.4v5c0,0.9,0.2,1.9,0.6,3.1h-5c0.4-1.1,0.6-1.9,0.6-2.7v-4.7v-0.3C95.5,134.9,95.4,133.7,95,132.6z"/>
				<path id="XMLID_59_" class="st0" d="M107.6,132.6h5c-0.4,1-0.6,2.1-0.6,3.3v4.1c0,1,0.4,1.4,1.3,1.5c0.5,0,0.9-0.2,1.4-0.5v-5.3
					c0-1-0.2-2-0.6-3.1h5c-0.4,1-0.6,1.9-0.6,2.8v5.3c0,1.1,0.2,2.2,0.6,3.3h-4.5v-1.4l-2.1,1.6c-0.2,0-0.4,0-0.6,0
					c-1.1,0-2.1-0.3-2.8-1c-0.7-0.7-1.1-1.6-1.1-2.9v-5.4C108.1,134.2,107.9,133.4,107.6,132.6z"/>
				<path id="XMLID_58_" class="st0" d="M120.4,140.8c0.7,0.4,1.2,0.7,1.6,0.8s0.8,0.2,1.2,0.2c0.4,0,0.7-0.1,0.9-0.2
					s0.4-0.4,0.4-0.7c0-0.4-0.2-0.7-0.5-1c-0.4-0.3-0.7-0.6-1.2-0.9c-0.8-0.6-1.3-1-1.6-1.4s-0.5-1-0.5-1.6c0-1.1,0.5-1.9,1.3-2.6
					c0.9-0.7,2-1,3.4-1c0.9,0,1.8,0.2,2.8,0.4v2.7c-0.5-0.3-1-0.4-1.3-0.5s-0.6-0.2-1-0.2c-0.4,0-0.7,0.1-0.9,0.2
					c-0.2,0.2-0.3,0.3-0.3,0.6c0,0.3,0.3,0.7,0.8,1c0.5,0.4,0.9,0.7,1.2,0.9c1.2,0.9,1.8,2,1.8,3.1c0,1-0.4,1.8-1.2,2.5s-2,1-3.5,1
					c-1.4,0-2.5-0.2-3.5-0.5L120.4,140.8L120.4,140.8z"/>
				<path id="XMLID_57_" class="st0" d="M130.6,144c0.4-1.2,0.6-2.2,0.6-2.9v-10.3c0-1-0.2-2.1-0.6-3.1h10.5l-1.8,3.4
					c-1.5-0.4-2.7-0.6-3.8-0.6v3.9h5l-1.7,3.4c-1.4-0.4-2.5-0.6-3.3-0.6v3.6c0,0.9,0.2,2,0.6,3.1L130.6,144L130.6,144z"/>
				<path id="XMLID_53_" class="st0" d="M142.9,135.6l0.8-2.8c0.9-0.2,1.5-0.4,2-0.4c0.5-0.1,0.9-0.1,1.3-0.1c1.4,0,2.5,0.4,3.3,1
					c0.8,0.7,1.2,1.8,1.2,3.4v4.5v0.2c0,0.7,0.2,1.6,0.6,2.5h-4.2V143l-1.9,1.3c-0.3,0.1-0.5,0.1-0.7,0.1c-0.9,0-1.7-0.3-2.4-0.9
					c-0.7-0.6-1-1.4-1-2.4c0-1.7,1.5-3,4.4-3.9l1.4-0.5c0-0.5-0.2-0.9-0.6-1.2s-0.9-0.5-1.6-0.5c-0.4,0-0.8,0.1-1.2,0.2
					C144,135.1,143.5,135.3,142.9,135.6z M145.1,131.3c0.7-1.1,1.2-2.3,1.6-3.7h4.5c-1.2,1.1-2.3,2.3-3.3,3.7H145.1z M111.5,131.1
					c0.7-1.1,1.2-2.3,1.6-3.7h4.5c-1.2,1.1-2.3,2.3-3.3,3.7H111.5z M145.6,139.3c-0.3,0.5-0.5,0.9-0.5,1.3c0,0.3,0.1,0.6,0.3,0.9
					s0.5,0.4,0.9,0.4c0.2,0,0.3,0,0.5-0.1c0.2-0.1,0.4-0.1,0.8-0.3v-2.3H145.6z"/>
				<path id="XMLID_52_" class="st0" d="M162.3,140.7l-1.5,3.3c-0.7,0.2-1.4,0.3-2.1,0.3c-1.8,0-3.2-0.6-4.4-1.6
					c-1.2-1.1-1.7-2.5-1.7-4.2c0-1.7,0.6-3.2,1.8-4.3s2.8-1.7,4.7-1.7c0.9,0,1.8,0.2,2.7,0.4l-0.2,2.9c-0.6-0.3-1-0.5-1.3-0.6
					c-0.3-0.1-0.6-0.2-0.9-0.2c-0.8,0-1.5,0.3-2,0.8c-0.6,0.6-0.8,1.3-0.8,2.3c0,0.9,0.3,1.7,0.7,2.4c0.5,0.7,1.2,1,2.2,1
					c0.7,0,1.2-0.1,1.7-0.4C161.7,141,162,140.8,162.3,140.7z"/>
				<path id="XMLID_49_" class="st0" d="M163.1,144c0.4-1,0.6-1.9,0.6-2.7v-5.6c0-1-0.2-2-0.6-3.1h5c-0.4,1-0.6,2-0.6,3v6.1
					c0,0.9,0.2,1.7,0.6,2.3H163.1z M163.3,129.3c0-0.6,0.2-1.1,0.6-1.6c0.4-0.5,1-0.7,1.7-0.7c0.7,0,1.2,0.2,1.7,0.7
					c0.5,0.5,0.7,1,0.7,1.6s-0.2,1.2-0.6,1.6c-0.4,0.5-1,0.7-1.6,0.7c-0.8,0-1.4-0.2-1.8-0.7C163.5,130.4,163.3,129.9,163.3,129.3z"
					/>
				<path id="XMLID_48_" class="st0" d="M169.6,128.1l5-0.5c-0.4,0.9-0.6,2-0.6,3.4v9.8c0,1,0.2,2,0.6,3.1h-5
					c0.4-0.9,0.6-2.2,0.6-3.9v-8.4v-0.5C170.1,129.9,169.9,128.9,169.6,128.1z"/>
			</g>
			<g id="XMLID_8_">
				<path id="XMLID_46_" class="st0" d="M66.5,154.3v-3.2c0-0.1,0-0.2,0-0.2c0-0.1,0-0.4,0.1-0.9c-0.2,0.7-0.3,1.1-0.4,1.4l-0.9,2.9
					h-0.7l-0.9-2.9l-0.4-1.5c0.1,0.6,0.1,1,0.1,1.2v3.2h-0.9V149h1.4l0.9,2.9l0.1,0.3l0.2,0.7l0.2-0.9L66,149h1.3v5.2L66.5,154.3
					L66.5,154.3z"/>
				<path id="XMLID_43_" class="st0" d="M71.6,154.3l-0.4-1.4h-1.8l-0.4,1.4h-1l1.7-5.2h1.2l1.7,5.2H71.6z M70.3,149.9v0.1
					c0,0.1-0.1,0.2-0.1,0.3c-0.1,0.1-0.2,0.8-0.6,1.9h1.4l-0.5-1.5l-0.2-0.5L70.3,149.9z"/>
				<path id="XMLID_42_" class="st0" d="M76.1,154.3l-2.1-4c0.1,0.4,0.1,0.7,0.1,1v3.1h-0.9V149h1.2l2.1,4.1c-0.1-0.4-0.1-0.7-0.1-1
					V149h0.9v5.2H76.1z"/>
				<path id="XMLID_39_" class="st0" d="M81.6,154.3l-0.4-1.4h-1.8l-0.4,1.4h-1l1.7-5.2h1.2l1.7,5.2H81.6z M80.3,149.9v0.1
					c0,0.1-0.1,0.2-0.1,0.3c-0.1,0.1-0.2,0.8-0.6,1.9h1.4l-0.5-1.5l-0.2-0.5L80.3,149.9z"/>
				<path id="XMLID_38_" class="st0" d="M85.4,153.5c0.3,0,0.5-0.1,0.8-0.1c0.3-0.1,0.5-0.2,0.6-0.3v-0.7h-1.2v-0.8h2.1v1.9
					c-0.3,0.3-0.6,0.5-1,0.7c-0.4,0.2-0.8,0.3-1.3,0.3c-0.8,0-1.4-0.3-1.8-0.7c-0.4-0.5-0.6-1.2-0.6-2s0.2-1.5,0.6-2
					c0.4-0.5,1-0.7,1.8-0.7c1.1,0,1.8,0.5,2.1,1.4l-0.9,0.3c-0.1-0.3-0.3-0.5-0.5-0.6c-0.2-0.2-0.5-0.2-0.8-0.2
					c-0.5,0-0.8,0.2-1.1,0.5s-0.4,0.8-0.4,1.4s0.1,1.1,0.4,1.4C84.6,153.3,85,153.5,85.4,153.5z"/>
				<path id="XMLID_37_" class="st0" d="M88.6,154.3V149h3.7v0.9h-2.7v1.3h2.5v0.9h-2.5v1.4h2.9v0.9L88.6,154.3L88.6,154.3z"/>
				<path id="XMLID_34_" class="st0" d="M96.5,154.3l-1.1-2h-1.2v2h-1V149h2.4c0.6,0,1,0.2,1.3,0.4s0.5,0.7,0.5,1.2
					c0,0.4-0.1,0.7-0.3,1c-0.2,0.3-0.5,0.5-0.8,0.5l1.3,2.2L96.5,154.3L96.5,154.3z M96.3,150.7c0-0.5-0.3-0.8-0.9-0.8h-1.3v1.6h1.3
					c0.3,0,0.5-0.1,0.7-0.2C96.3,151.1,96.3,150.9,96.3,150.7z"/>
				<path id="XMLID_31_" class="st0" d="M104.3,151.6c0,0.6-0.1,1-0.3,1.4c-0.2,0.4-0.5,0.7-0.8,0.9c-0.4,0.2-0.8,0.3-1.2,0.3h-1.9
					V149h1.7c0.8,0,1.4,0.2,1.9,0.7C104.1,150.2,104.3,150.8,104.3,151.6z M103.3,151.6c0-0.6-0.2-1-0.4-1.3
					c-0.3-0.3-0.7-0.5-1.2-0.5h-0.7v3.5h0.9c0.4,0,0.8-0.2,1-0.5C103.2,152.5,103.3,152.2,103.3,151.6z"/>
				<path id="XMLID_30_" class="st0" d="M105.1,154.3V149h3.7v0.9h-2.7v1.3h2.5v0.9h-2.5v1.4h2.9v0.9L105.1,154.3L105.1,154.3z"/>
				<path id="XMLID_27_" class="st0" d="M115.5,150.7c0,0.4-0.1,0.7-0.2,0.9c-0.2,0.3-0.4,0.5-0.6,0.6s-0.6,0.2-0.9,0.2h-1.2v1.9h-1
					V149h2.1c0.6,0,1,0.2,1.3,0.5C115.4,149.8,115.5,150.2,115.5,150.7z M114.5,150.7c0-0.6-0.3-0.8-0.9-0.8h-1v1.7h1.1
					c0.3,0,0.5-0.1,0.7-0.2C114.5,151.2,114.5,151,114.5,150.7z"/>
				<path id="XMLID_26_" class="st0" d="M116.2,154.3V149h3.7v0.9h-2.7v1.3h2.5v0.9h-2.5v1.4h2.9v0.9L116.2,154.3L116.2,154.3z"/>
				<path id="XMLID_23_" class="st0" d="M125.1,151.6c0,0.6-0.1,1-0.3,1.4c-0.2,0.4-0.5,0.7-0.8,0.9c-0.4,0.2-0.8,0.3-1.2,0.3h-1.9
					V149h1.7c0.8,0,1.4,0.2,1.9,0.7C124.8,150.2,125.1,150.8,125.1,151.6z M124.1,151.6c0-0.6-0.2-1-0.4-1.3
					c-0.3-0.3-0.7-0.5-1.2-0.5h-0.7v3.5h0.9c0.4,0,0.8-0.2,1-0.5C123.9,152.5,124.1,152.2,124.1,151.6z"/>
				<path id="XMLID_22_" class="st0" d="M125.8,154.3V149h1v5.2H125.8z"/>
				<path id="XMLID_19_" class="st0" d="M132,151.6c0,0.6-0.1,1-0.3,1.4c-0.2,0.4-0.5,0.7-0.8,0.9c-0.4,0.2-0.8,0.3-1.2,0.3h-1.9
					V149h1.7c0.8,0,1.4,0.2,1.9,0.7C131.7,150.2,132,150.8,132,151.6z M131,151.6c0-0.6-0.2-1-0.4-1.3s-0.7-0.5-1.2-0.5h-0.7v3.5
					h0.9c0.4,0,0.8-0.2,1-0.5C130.8,152.5,131,152.2,131,151.6z"/>
				<path id="XMLID_16_" class="st0" d="M137.4,151.7c0,0.6-0.1,1-0.3,1.5c-0.2,0.4-0.5,0.8-0.9,1c-0.4,0.2-0.8,0.4-1.3,0.4
					c-0.8,0-1.3-0.3-1.8-0.7c-0.4-0.5-0.7-1.2-0.7-2c0-0.9,0.2-1.5,0.7-2c0.4-0.5,1-0.7,1.8-0.7c0.8,0,1.4,0.3,1.8,0.7
					C137.1,150.2,137.4,150.8,137.4,151.7z M136.3,151.7c0-0.6-0.1-1-0.4-1.3s-0.6-0.5-1-0.5c-0.5,0-0.8,0.2-1,0.5
					c-0.3,0.3-0.4,0.8-0.4,1.3s0.1,1,0.4,1.4s0.6,0.5,1,0.5c0.5,0,0.8-0.2,1-0.5C136.2,152.7,136.3,152.2,136.3,151.7z"/>
				<path id="XMLID_15_" class="st0" d="M142,152.8c0,0.5-0.2,0.9-0.5,1.2c-0.4,0.3-0.9,0.4-1.5,0.4c-0.6,0-1.1-0.1-1.4-0.4
					s-0.6-0.6-0.7-1.1l1-0.2c0.1,0.3,0.2,0.5,0.4,0.6c0.2,0.1,0.5,0.2,0.8,0.2c0.7,0,1.1-0.3,1.1-0.7c0-0.2-0.1-0.3-0.1-0.4
					c-0.1-0.1-0.2-0.2-0.4-0.3c-0.2-0.1-0.4-0.2-0.9-0.3c-0.4-0.1-0.6-0.2-0.8-0.2s-0.3-0.1-0.4-0.2c-0.1-0.1-0.2-0.2-0.3-0.3
					c-0.1-0.1-0.2-0.3-0.2-0.4c-0.1-0.1-0.1-0.3-0.1-0.5c0-0.5,0.2-0.9,0.5-1.1c0.3-0.3,0.8-0.4,1.4-0.4s1,0.1,1.3,0.3
					c0.3,0.2,0.5,0.6,0.6,1l-1,0.2c-0.1-0.2-0.2-0.4-0.3-0.5s-0.4-0.2-0.7-0.2c-0.6,0-0.9,0.2-0.9,0.6c0,0.2,0.1,0.3,0.1,0.4
					c0.1,0.1,0.2,0.2,0.3,0.2s0.4,0.2,0.8,0.3c0.5,0.1,0.8,0.2,1,0.3c0.2,0.1,0.4,0.2,0.5,0.3c0.1,0.1,0.2,0.3,0.3,0.5
					C141.9,152.5,142,152.6,142,152.8z"/>
				<path id="XMLID_14_" class="st0" d="M146.8,152.1v2.2h-1v-2.2l-1.7-3.1h1.1l1.2,2.2l1.2-2.2h1.1L146.8,152.1z"/>
				<path id="XMLID_13_" class="st0" d="M154.9,154.3v-3.2c0-0.1,0-0.2,0-0.2c0-0.1,0-0.4,0.1-0.9c-0.2,0.7-0.3,1.1-0.4,1.4
					l-0.9,2.9H153l-0.9-2.9l-0.4-1.4c0.1,0.6,0.1,1,0.1,1.2v3.2h-0.9v-5.2h1.3l0.9,2.9l0.1,0.3l0.2,0.7l0.2-0.9l0.9-3.1h1.3v5.2
					L154.9,154.3L154.9,154.3z"/>
				<path id="XMLID_12_" class="st0" d="M156.7,154.3V149h3.7v0.9h-2.7v1.3h2.5v0.9h-2.5v1.4h2.9v0.9L156.7,154.3L156.7,154.3z"/>
				<path id="XMLID_11_" class="st0" d="M164.2,154.3l-2.1-4c0.1,0.4,0.1,0.7,0.1,1v3.1h-0.9V149h1.2l2.1,4.1
					c-0.1-0.4-0.1-0.7-0.1-1V149h0.9v5.2H164.2z"/>
				<path id="XMLID_10_" class="st0" d="M168.3,154.4c-0.7,0-1.2-0.2-1.5-0.5c-0.4-0.4-0.5-0.9-0.5-1.5v-3.3h1v3.2
					c0,0.4,0.1,0.7,0.3,1c0.2,0.2,0.5,0.3,0.8,0.3c0.4,0,0.6-0.1,0.8-0.4c0.2-0.3,0.3-0.6,0.3-1V149h1v3.2c0,0.7-0.2,1.2-0.6,1.6
					C169.5,154.2,168.9,154.4,168.3,154.4z"/>
				<path id="XMLID_9_" class="st0" d="M175.2,152.8c0,0.5-0.2,0.9-0.5,1.2s-0.9,0.4-1.5,0.4c-0.6,0-1.1-0.1-1.4-0.4
					s-0.6-0.6-0.7-1.1l1-0.2c0.1,0.3,0.2,0.5,0.4,0.6c0.2,0.1,0.5,0.2,0.8,0.2c0.7,0,1.1-0.3,1.1-0.7c0-0.2-0.1-0.3-0.1-0.4
					c-0.1-0.1-0.2-0.2-0.4-0.3c-0.2-0.1-0.4-0.2-0.9-0.3c-0.4-0.1-0.6-0.2-0.8-0.2s-0.3-0.1-0.4-0.2c-0.1-0.1-0.2-0.2-0.3-0.3
					c-0.1-0.1-0.2-0.3-0.2-0.4c-0.1-0.1-0.1-0.3-0.1-0.5c0-0.5,0.2-0.9,0.5-1.1c0.3-0.3,0.8-0.4,1.4-0.4s1,0.1,1.3,0.3
					c0.3,0.2,0.5,0.6,0.6,1l-1,0.2c-0.1-0.2-0.2-0.4-0.3-0.5s-0.4-0.2-0.7-0.2c-0.6,0-0.9,0.2-0.9,0.6c0,0.2,0.1,0.3,0.1,0.4
					c0.1,0.1,0.2,0.2,0.3,0.2c0.2,0.1,0.4,0.2,0.8,0.3c0.5,0.1,0.8,0.2,1,0.3c0.2,0.1,0.4,0.2,0.5,0.3s0.2,0.3,0.3,0.5
					C175.1,152.5,175.2,152.6,175.2,152.8z"/>
			</g>
			<g id="XMLID_111_">
				<path id="XMLID_128_" class="st0" d="M219.4,89.6h23.5c0,2,0.4,3.7,1.3,5l15.2,18.9l16.3-19.6c0.7-0.9,1.3-1.9,1.5-2.4
					c0.2-0.6,0.2-1.3,0.2-1.9h18c-3,5.6-4.4,11.5-4.4,17.8v24.1c0,9.1,0.7,15.2,2,18.3h-20c1.3-3.1,2-9.3,2-18.3v-17.8l-15.5,20.7
					l-15.7-20.7v17.8c0,7.8,0.7,13.9,2,18.3h-20.2c1.3-4.1,2-10.2,2-18.3v-32L219.4,89.6z"/>
				<path id="XMLID_125_" class="st0" d="M337.3,125.8c0,1.5-0.2,3.3-0.6,5.6h-22c0.6,2.6,1.9,4.8,3.9,6.7c2,1.9,4.6,2.6,7.8,2.6
					c2,0,3.9-0.2,5.6-0.7c1.7-0.6,3.5-1.5,5.4-2.6l-5,12.2c-2.8,0.6-5.6,0.9-8.5,0.9c-7.4,0-13.3-1.9-17.8-5.6
					c-4.4-3.7-6.7-9.1-6.7-16.1c0-6.7,1.9-11.8,5.7-15.9c3.9-4.1,8.9-6.1,14.8-6.1c5.2,0,9.3,1.7,12.6,5
					C335.6,115.3,337.3,119.9,337.3,125.8z M319.5,115.1c-1.9,0-3.3,0.7-4.1,2c-0.9,1.3-1.5,3.3-1.7,6.3h10.7
					C324.7,117.9,323,115.1,319.5,115.1z"/>
				<path id="XMLID_124_" class="st0" d="M340.8,107.9h16.3v7.8l8.1-8.1c1.7-0.2,3-0.4,3.9-0.4c3.9,0,6.8,1.1,9.1,3.5
					c2.2,2.2,3.3,5.7,3.3,10v18.9c0,3.3,0.7,6.7,2,10.4h-18.5c1.3-4.1,2-7.6,2-10.4v-12.4c0-3.9-0.4-6.3-1.3-7.2
					c-0.9-0.9-2.2-1.5-3.9-1.5c-1.5,0-3,0.4-4.4,1.3v18.5c0,3.1,0.7,7,2,11.5H341c1.3-3.9,2-7,2-9.8v-17.2v-1.1
					C342.8,116.4,342.3,111.8,340.8,107.9z"/>
				<path id="XMLID_123_" class="st0" d="M387.1,107.9h18.5c-1.3,3.5-2,7.6-2,12v15.2c0,3.5,1.5,5.2,4.6,5.4c1.7,0,3.3-0.6,5.2-1.9
					v-19.4c0-3.5-0.7-7.4-2-11.5h18.5c-1.3,3.5-2,7-2,10.4v19.4c0,4.1,0.7,8.1,2,12h-16.5v-5l-7.8,5.7c-0.6,0-1.3,0-2.2,0
					c-4.1,0-7.6-1.1-10.2-3.5c-2.6-2.4-4.1-5.9-4.1-10.6v-20C389.1,113.8,388.4,110.8,387.1,107.9z"/>
				<path id="XMLID_122_" class="st0" d="M434.1,137.9c2.6,1.5,4.4,2.4,5.9,2.8c1.5,0.4,2.8,0.6,4.3,0.6c1.3,0,2.4-0.2,3.3-0.7
					c0.9-0.6,1.5-1.3,1.5-2.4c0-1.3-0.6-2.4-1.9-3.7c-1.3-1.1-2.6-2.2-4.3-3.3c-2.8-2-4.8-3.7-5.9-5.2c-1.1-1.5-1.7-3.5-1.7-5.9
					c0-3.9,1.7-7,4.8-9.4c3.3-2.6,7.4-3.7,12.6-3.7c3.3,0,6.7,0.6,10.2,1.5v10c-1.9-0.9-3.5-1.5-4.6-1.9c-1.1-0.4-2.2-0.6-3.5-0.6
					c-1.5,0-2.6,0.2-3.3,0.7c-0.7,0.6-1.1,1.1-1.1,2c0,1.1,0.9,2.4,2.8,3.7c1.9,1.3,3.3,2.4,4.4,3.3c4.4,3.3,6.7,7.2,6.7,11.5
					c0,3.5-1.5,6.7-4.4,9.3c-3,2.6-7.2,3.7-13,3.7c-5,0-9.1-0.6-12.8-1.9L434.1,137.9L434.1,137.9z"/>
				<path id="XMLID_121_" class="st0" d="M471.9,149.7c1.3-4.4,2-8,2-10.7V101c0-3.7-0.7-7.6-2-11.3h38.7l-6.7,12.6
					c-5.4-1.3-10-2-14.1-2v14.3h18.3l-6.3,12.6c-5.2-1.3-9.1-2-12-2v13.3c0,3.3,0.7,7.2,2,11.5h-20V149.7z"/>
				<path id="XMLID_117_" class="st0" d="M516.8,119l2.8-10.2c3.1-0.7,5.6-1.3,7.2-1.5c1.7-0.2,3.1-0.4,4.6-0.4c5,0,9.1,1.3,12,3.7
					c3,2.6,4.4,6.7,4.4,12.6v16.7v0.6c0,2.6,0.7,5.7,2,9.3h-15.4v-3.9l-6.8,4.6c-0.9,0.2-1.9,0.2-2.6,0.2c-3.1,0-6.1-1.1-8.7-3.1
					c-2.6-2.2-3.7-5-3.7-8.7c0-6.3,5.4-11.1,16.3-14.3l5.2-1.7c0-1.7-0.7-3.1-2-4.4c-1.3-1.3-3.1-1.9-5.7-1.9c-1.5,0-3,0.2-4.3,0.6
					C521.1,117.1,519.2,117.9,516.8,119z M525,102.9c2.6-3.9,4.4-8.5,5.7-13.7h16.7c-4.3,3.9-8.3,8.5-12.2,13.7H525z M401.4,102.3
					c2.6-3.9,4.4-8.5,5.7-13.7h16.7c-4.3,3.9-8.3,8.5-12.2,13.7H401.4z M526.8,132.3c-1.1,1.7-1.7,3.1-1.7,4.8
					c0,1.1,0.4,2.2,1.1,3.1c0.7,0.9,1.9,1.5,3.3,1.5c0.6,0,1.1,0,1.7-0.2s1.5-0.4,2.8-0.9v-8.3H526.8z"/>
				<path id="XMLID_116_" class="st0" d="M588.1,137.5l-5.4,12c-2.4,0.7-5,1.1-7.6,1.1c-6.5,0-11.8-2-16.1-5.9
					c-4.3-3.9-6.3-9.1-6.3-15.5c0-6.3,2.2-11.7,6.7-15.9c4.4-4.3,10.2-6.3,17.2-6.3c3.1,0,6.5,0.6,9.8,1.5l-0.7,10.7
					c-2-1.1-3.5-1.7-4.6-2c-1.1-0.4-2.2-0.6-3.3-0.6c-3,0-5.6,0.9-7.4,3c-2,2-3,4.8-3,8.5c0,3.3,0.9,6.3,2.6,8.7
					c1.9,2.4,4.4,3.7,8,3.7c2.4,0,4.4-0.4,6.1-1.3C585.9,138.6,587.2,137.9,588.1,137.5z"/>
				<path id="XMLID_113_" class="st0" d="M591.3,149.7c1.3-3.7,2-6.8,2-9.8v-20.5c0-3.7-0.7-7.4-2-11.5h18.5c-1.3,3.5-2,7.2-2,10.9
					v22.4c0,3.3,0.7,6.3,2,8.5H591.3z M592,95.5c0-2.2,0.7-4.1,2.2-5.7c1.5-1.7,3.7-2.6,6.3-2.6c2.4,0,4.4,0.7,6.1,2.4
					c1.7,1.7,2.6,3.7,2.6,5.9c0,2.2-0.7,4.3-2.2,5.9c-1.5,1.7-3.5,2.4-5.9,2.4c-3,0-5-0.7-6.7-2.4C592.7,99.7,592,97.7,592,95.5z"/>
				<path id="XMLID_112_" class="st0" d="M614.9,91.4l18.5-1.9c-1.3,3.1-2,7.4-2,12.6v36.1c0,3.5,0.7,7.4,2,11.5h-18.5
					c1.3-3.3,2-8.1,2-14.3v-30.7v-1.9C617,97.9,616.2,94.2,614.9,91.4z"/>
			</g>
			<g id="XMLID_72_">
				<path id="XMLID_110_" class="st0" d="M236,187.5v-11.7c0-0.2,0-0.6,0-0.7c0-0.2,0-1.5,0.2-3.3c-0.6,2.4-1.1,4.1-1.3,5.2
					l-3.1,10.7h-2.6l-3.1-10.7l-1.5-5.4c0.2,2,0.2,3.5,0.2,4.3v11.7h-3.3v-19.3h5l3.1,10.7l0.2,1.1l0.6,2.6l0.7-3.1l3.1-11.3h4.8
					v19.3L236,187.5L236,187.5z"/>
				<path id="XMLID_107_" class="st0" d="M254.9,187.5l-1.5-5h-6.7l-1.5,5h-3.7l6.3-19.3h4.3l6.3,19.3H254.9z M250.1,171.2v0.4
					c0,0.4-0.2,0.7-0.4,1.1c-0.2,0.4-0.7,2.8-2.2,6.8h5l-1.7-5.6l-0.6-1.9L250.1,171.2z"/>
				<path id="XMLID_106_" class="st0" d="M271.6,187.5l-7.6-14.8c0.2,1.5,0.2,2.6,0.2,3.5v11.3h-3.3v-19.3h4.3l7.8,15
					c-0.2-1.3-0.2-2.6-0.2-3.7v-11.3h3.3v19.3H271.6z"/>
				<path id="XMLID_103_" class="st0" d="M291.6,187.5l-1.5-5h-6.7l-1.5,5h-3.7l6.3-19.3h4.3l6.3,19.3H291.6z M286.8,171.2v0.4
					c0,0.4-0.2,0.7-0.4,1.1c-0.2,0.4-0.7,2.8-2.2,6.8h5l-1.7-5.6l-0.6-1.9L286.8,171.2z"/>
				<path id="XMLID_102_" class="st0" d="M305.8,184.5c0.9,0,1.9-0.2,2.8-0.4c0.9-0.4,1.7-0.7,2-1.1v-2.6h-4.3v-3h7.6v7
					c-0.9,1.1-2.2,1.9-3.7,2.4c-1.5,0.6-3,0.9-4.6,0.9c-2.8,0-5-0.9-6.5-2.6c-1.5-1.7-2.2-4.3-2.2-7.4s0.7-5.6,2.2-7.2
					c1.5-1.7,3.7-2.6,6.7-2.6c4.1,0,6.7,1.7,7.8,5l-3.3,1.1c-0.4-0.9-0.9-1.7-1.7-2.2c-0.7-0.6-1.7-0.7-2.8-0.7
					c-1.7,0-3,0.6-3.9,1.7c-0.9,1.1-1.3,2.8-1.3,5s0.4,3.9,1.3,5C302.9,184,304.2,184.5,305.8,184.5z"/>
				<path id="XMLID_101_" class="st0" d="M317.3,187.5v-19.3H331v3.1h-10v4.8h9.3v3.1H321v5h10.6v3.1L317.3,187.5L317.3,187.5z"/>
				<path id="XMLID_98_" class="st0" d="M346.4,187.5l-4.1-7.4H338v7.4h-3.7v-19.3h8.7c2,0,3.7,0.6,4.8,1.5c1.1,0.9,1.7,2.4,1.7,4.3
					c0,1.3-0.4,2.6-1.1,3.5c-0.7,0.9-1.7,1.7-2.8,1.9l4.8,8.1L346.4,187.5L346.4,187.5z M345.8,174.1c0-1.9-1.1-2.8-3.1-2.8H338v5.7
					h4.8c1.1,0,1.9-0.2,2.4-0.7C345.6,175.8,345.8,175.1,345.8,174.1z"/>
				<path id="XMLID_95_" class="st0" d="M375.2,177.7c0,2-0.4,3.7-1.1,5.2c-0.7,1.5-1.7,2.6-3,3.3s-2.8,1.1-4.4,1.1h-7V168h6.3
					c3,0,5.2,0.7,6.8,2.4C374.5,172.3,375.2,174.7,375.2,177.7z M371.5,177.7c0-2-0.6-3.7-1.5-4.8c-0.9-1.1-2.4-1.7-4.3-1.7h-2.4v13
					h3.1c1.5,0,2.8-0.6,3.7-1.9C371.2,181,371.5,179.7,371.5,177.7z"/>
				<path id="XMLID_94_" class="st0" d="M378,187.5v-19.3h13.7v3.1h-10v4.8h9.3v3.1h-9.3v5h10.6v3.1L378,187.5L378,187.5z"/>
				<path id="XMLID_91_" class="st0" d="M416.3,174.3c0,1.3-0.2,2.4-0.7,3.3c-0.6,0.9-1.3,1.7-2.2,2.2c-0.9,0.6-2,0.7-3.3,0.7h-4.3
					v6.8h-3.7v-19.3h7.8c2,0,3.7,0.6,4.8,1.7C415.8,171,416.3,172.3,416.3,174.3z M412.6,174.3c0-2-1.1-3-3.3-3h-3.7v6.3h3.9
					c0.9,0,1.9-0.2,2.4-0.7C412.4,176.2,412.6,175.4,412.6,174.3z"/>
				<path id="XMLID_90_" class="st0" d="M418.9,187.5v-19.3h13.7v3.1h-10v4.8h9.3v3.1h-9.3v5h10.6v3.1L418.9,187.5L418.9,187.5z"/>
				<path id="XMLID_87_" class="st0" d="M451.5,177.7c0,2-0.4,3.7-1.1,5.2c-0.7,1.5-1.7,2.6-3,3.3c-1.3,0.7-2.8,1.1-4.4,1.1h-7V168
					h6.3c3,0,5.2,0.7,6.8,2.4C450.6,172.3,451.5,174.7,451.5,177.7z M447.8,177.7c0-2-0.6-3.7-1.5-4.8c-0.9-1.1-2.4-1.7-4.3-1.7
					h-2.6v13h3.1c1.5,0,2.8-0.6,3.7-1.9C447.2,181,447.8,179.7,447.8,177.7z"/>
				<path id="XMLID_86_" class="st0" d="M454.3,187.5v-19.3h3.7v19.3H454.3z"/>
				<path id="XMLID_83_" class="st0" d="M476.9,177.7c0,2-0.4,3.7-1.1,5.2c-0.7,1.5-1.7,2.6-3,3.3c-1.3,0.7-2.8,1.1-4.4,1.1h-7V168
					h6.3c3,0,5.2,0.7,6.8,2.4C475.9,172.3,476.9,174.7,476.9,177.7z M473.2,177.7c0-2-0.6-3.7-1.5-4.8c-0.9-1.1-2.4-1.7-4.3-1.7
					h-2.6v13h3.1c1.5,0,2.8-0.6,3.7-1.9C472.6,181,473.2,179.7,473.2,177.7z"/>
				<path id="XMLID_80_" class="st0" d="M496.7,177.9c0,2-0.4,3.7-1.1,5.4c-0.7,1.5-1.7,2.8-3.1,3.5c-1.3,0.7-3,1.3-4.6,1.3
					c-2.8,0-4.8-0.9-6.5-2.6c-1.5-1.9-2.4-4.3-2.4-7.4s0.7-5.6,2.4-7.2c1.5-1.7,3.7-2.6,6.5-2.6s5,0.9,6.5,2.6
					C495.7,172.3,496.7,174.7,496.7,177.9z M492.8,177.9c0-2-0.4-3.7-1.3-4.8c-0.9-1.1-2.2-1.9-3.7-1.9c-1.7,0-3,0.6-3.7,1.7
					c-0.9,1.1-1.3,2.8-1.3,4.8c0,2,0.4,3.7,1.3,5c0.9,1.3,2.2,1.9,3.7,1.9c1.7,0,3-0.6,3.7-1.9C492.4,181.6,492.8,179.9,492.8,177.9
					z"/>
				<path id="XMLID_79_" class="st0" d="M513.5,181.9c0,1.9-0.6,3.3-1.9,4.3s-3.1,1.5-5.6,1.5c-2.2,0-4.1-0.4-5.2-1.3
					s-2-2.2-2.4-3.9l3.5-0.6c0.2,1.1,0.7,1.9,1.5,2.2c0.7,0.4,1.7,0.7,3,0.7c2.6,0,3.9-0.9,3.9-2.6c0-0.6-0.2-0.9-0.4-1.3
					c-0.4-0.4-0.7-0.7-1.3-0.9c-0.6-0.2-1.5-0.6-3.1-0.9c-1.3-0.4-2.2-0.6-2.8-0.7c-0.6-0.2-0.9-0.4-1.5-0.7
					c-0.4-0.4-0.7-0.6-1.1-0.9c-0.4-0.4-0.6-0.9-0.7-1.3c-0.2-0.4-0.2-1.1-0.2-1.9c0-1.7,0.6-3.1,1.9-4.1c1.1-0.9,3-1.3,5.2-1.3
					c2.2,0,3.7,0.4,4.8,1.1c1.1,0.7,1.9,2,2,3.7l-3.5,0.6c-0.2-0.7-0.6-1.5-1.1-1.9c-0.6-0.4-1.3-0.6-2.4-0.6
					c-2.2,0-3.3,0.7-3.3,2.2c0,0.6,0.2,0.9,0.4,1.3c0.2,0.4,0.6,0.6,1.1,0.7c0.6,0.2,1.5,0.6,2.8,0.9c1.7,0.4,3,0.7,3.5,1.1
					c0.7,0.4,1.3,0.7,1.7,1.1c0.4,0.4,0.7,0.9,0.9,1.7C513.3,181,513.5,181.2,513.5,181.9z"/>
				<path id="XMLID_78_" class="st0" d="M531.5,179.5v8h-3.7v-8l-6.3-11.3h3.9l4.3,8.1l4.3-8.1h3.9L531.5,179.5z"/>
				<path id="XMLID_77_" class="st0" d="M560.9,187.5v-11.7c0-0.2,0-0.6,0-0.7c0-0.2,0-1.5,0.2-3.3c-0.6,2.4-1.1,4.1-1.3,5.2
					l-3.1,10.7H554l-3.1-10.7l-1.3-5.2c0.2,2,0.2,3.5,0.2,4.3v11.7h-3.3v-19.3h4.8l3.1,10.7l0.2,1.1l0.6,2.6l0.7-3.1l3.1-11.3h4.8
					v19.3h-3V187.5z"/>
				<path id="XMLID_76_" class="st0" d="M567.6,187.5v-19.3h13.7v3.1h-10v4.8h9.3v3.1h-9.3v5h10.6v3.1L567.6,187.5L567.6,187.5z"/>
				<path id="XMLID_75_" class="st0" d="M595.1,187.5l-7.6-14.8c0.2,1.5,0.2,2.6,0.2,3.5v11.3h-3.3v-19.3h4.3l7.8,15
					c-0.2-1.3-0.2-2.6-0.2-3.7v-11.3h3.3v19.3H595.1z"/>
				<path id="XMLID_74_" class="st0" d="M610.1,187.8c-2.4,0-4.3-0.6-5.6-1.9c-1.3-1.3-1.9-3.1-1.9-5.6v-12h3.7v11.7
					c0,1.5,0.4,2.6,0.9,3.5c0.7,0.7,1.7,1.1,3,1.1s2.2-0.4,3-1.3c0.7-0.9,1.1-2,1.1-3.5v-11.7h3.7v11.8c0,2.4-0.7,4.3-2,5.7
					C614.8,187.3,612.5,187.8,610.1,187.8z"/>
				<path id="XMLID_73_" class="st0" d="M635.5,181.9c0,1.9-0.6,3.3-1.9,4.3c-1.3,0.9-3.1,1.5-5.6,1.5c-2.2,0-4.1-0.4-5.2-1.3
					s-2-2.2-2.4-3.9l3.5-0.6c0.2,1.1,0.7,1.9,1.5,2.2c0.7,0.4,1.7,0.7,3,0.7c2.6,0,3.9-0.9,3.9-2.6c0-0.6-0.2-0.9-0.4-1.3
					c-0.4-0.4-0.7-0.7-1.3-0.9c-0.6-0.2-1.5-0.6-3.1-0.9c-1.3-0.4-2.2-0.6-2.8-0.7c-0.6-0.2-0.9-0.4-1.5-0.7
					c-0.4-0.4-0.7-0.6-1.1-0.9c-0.4-0.4-0.6-0.9-0.7-1.3c-0.2-0.4-0.2-1.1-0.2-1.9c0-1.7,0.6-3.1,1.9-4.1c1.1-0.9,3-1.3,5.2-1.3
					c2.2,0,3.7,0.4,4.8,1.1c1.1,0.7,1.9,2,2,3.7l-3.5,0.6c-0.2-0.7-0.6-1.5-1.1-1.9c-0.6-0.4-1.3-0.6-2.4-0.6
					c-2.2,0-3.3,0.7-3.3,2.2c0,0.6,0.2,0.9,0.4,1.3c0.2,0.4,0.6,0.6,1.1,0.7c0.6,0.2,1.5,0.6,2.8,0.9c1.7,0.4,3,0.7,3.5,1.1
					c0.7,0.4,1.3,0.7,1.7,1.1c0.4,0.4,0.7,0.9,0.9,1.7C635.3,181,635.5,181.2,635.5,181.9z"/>
			</g>
			
				<linearGradient id="XMLID_184_" gradientUnits="userSpaceOnUse" x1="74.002" y1="253.0197" x2="159.4062" y2="253.0197" gradientTransform="matrix(1 0 0 -1 0 420)">
				<stop  offset="0" style="stop-color:#7D1E1A"/>
				<stop  offset="0.205" style="stop-color:#AC3633"/>
				<stop  offset="0.4022" style="stop-color:#D95253"/>
				<stop  offset="0.5" style="stop-color:#EB6062"/>
				<stop  offset="0.5978" style="stop-color:#D95253"/>
				<stop  offset="0.795" style="stop-color:#AC3633"/>
				<stop  offset="1" style="stop-color:#7D1E1A"/>
			</linearGradient>
			<path id="XMLID_5_" class="st3" d="M121.1,168.9c2,0.3,4.1,4.8,1.6,4.4c-9.4-1.4-6.7-15.5,2.8-12c5.8,2.1,9.3,8,15.5,9.1
				c3.3,0.6,7.3,0.7,10.5-0.7c1.6-0.7,3.8-1.9,3.9-3.9c0.2-5.1-4.1-1.7-3.7-1.1c1.8,2.8-1.9,3.2-3.3,1c-2.8-4.4,1.2-8.6,5.9-6.9
				c3.7,1.3,6.5,7.1,4.8,10.8c-2.5,5.5-10.6,6.4-15.9,5.5c-3.7-0.7-7.2-2-10.2-4.5c-1.7-1.4-3.5-3.4-5.5-4.3c-1-0.6-2.1-0.9-3.3-1
				C121.8,165.3,120.8,166.5,121.1,168.9L121.1,168.9z M112.5,168.9c-2,0.3-4.1,4.8-1.6,4.4c9.4-1.4,6.7-15.5-2.8-12
				c-5.8,2.1-9.3,8-15.5,9.1c-3.3,0.6-7.3,0.7-10.5-0.7c-1.6-0.7-3.8-1.9-3.9-3.9c-0.2-5.1,4.1-1.7,3.7-1.1c-1.8,2.8,1.9,3.2,3.3,1
				c2.8-4.4-1.2-8.6-5.9-6.9c-3.7,1.3-6.5,7.1-4.8,10.8c2.5,5.5,10.6,6.4,15.9,5.5c3.7-0.7,7.2-2,10.2-4.5c1.7-1.4,3.5-3.4,5.5-4.3
				c1-0.6,2.1-0.9,3.3-1C111.7,165.3,112.7,166.5,112.5,168.9L112.5,168.9z"/>
		</g>
	</g>
</g>
</svg>
