<?xml version="1.0" encoding="utf-8"?>
<!-- Generator: Adobe Illustrator 19.0.0, SVG Export Plug-In . SVG Version: 6.00 Build 0)  -->
<svg version="1.1" id="Capa_1" xmlns="http://www.w3.org/2000/svg" xmlns:xlink="http://www.w3.org/1999/xlink" x="0px" y="0px"
	 viewBox="0 0 411 403" style="enable-background:new 0 0 411 403;" xml:space="preserve">
<style type="text/css">
	.st0{fill:#2D2624;}
	.st1{fill:url(#XMLID_124_);}
	.st2{fill:#FFFFFF;}
	.st3{fill:url(#XMLID_125_);}
</style>
<g id="XMLID_2_">
	<g id="XMLID_68_">
		<path id="XMLID_71_" class="st0" d="M149.1,44.5c-18.4,0-33.3,22.1-33.3,49.5c0,24,11.4,44,26.7,48.6c0.3,6.4,0.5,13.7,0.5,22.1
			c0,55.1-8.5,135.3,6.2,135.3s7.5-80.1,7.5-135.3c0-8.6,0.2-16,0.5-22.5c14.6-5.2,25.4-24.7,25.4-48.1
			C182.3,66.6,167.4,44.5,149.1,44.5z"/>
		<path id="XMLID_70_" class="st0" d="M222.4,144V6.9c-28.7,18.6-31,98.8-26.3,121.8c2,10.1,7.3,16,12.7,19.5
			c-1,55.4-7.2,133.3,6.3,133.3C229.8,281.7,222.4,199.2,222.4,144L222.4,144z"/>
		<path id="XMLID_69_" class="st0" d="M274.6,46.7h-2.1c0,0,3.7,62.5-1.2,62.5c-5,0-5.5-62.5-5.5-62.5h-1.8c0,0,2.6,63.3-2.3,63.3
			c-5,0-2.3-63.3-2.3-63.3h-1.8c0,0-0.6,62.5-5.5,62.5c-5,0-1.2-62.5-1.2-62.5h-2.1c0,0-12.9,76.6-6,83.3
			c6.9,6.7,11.9,12.3,11.9,19.3l0.7,17.5c0,55.1-8.5,135.3,6.2,135.3c14.7,0,7.5-80.1,7.5-135.3l0.3-17.4c0-7,4.6-12.9,11.5-19.5
			C287.5,123.4,274.6,46.7,274.6,46.7z"/>
	</g>
	<g id="XMLID_3_">
		<g id="XMLID_65_">
			
				<linearGradient id="XMLID_124_" gradientUnits="userSpaceOnUse" x1="95.5712" y1="111.2681" x2="315.4531" y2="331.1501" gradientTransform="matrix(1 0 0 -1 0 498)">
				<stop  offset="0" style="stop-color:#7D1E1A"/>
				<stop  offset="0.205" style="stop-color:#AC3633"/>
				<stop  offset="0.4022" style="stop-color:#D95253"/>
				<stop  offset="0.5" style="stop-color:#EB6062"/>
				<stop  offset="0.5978" style="stop-color:#D95253"/>
				<stop  offset="0.795" style="stop-color:#AC3633"/>
				<stop  offset="1" style="stop-color:#7D1E1A"/>
			</linearGradient>
			<path id="XMLID_67_" class="st1" d="M395.8,276.8c0-33.9-23.5-62.1-55-69.7c-30.7-28.4-79.8-46.7-135-46.7
				c-55.1,0-104.1,18.3-134.9,46.6c-31.8,7.3-55.5,35.8-55.5,69.8s23.7,62.5,55.5,69.8c30.7,28.2,79.7,46.6,134.9,46.6
				s104.2-18.3,135-46.7C372.2,338.9,395.8,310.6,395.8,276.8z"/>
			<path id="XMLID_66_" class="st2" d="M205.7,381.7c-49.5,0-96.5-16.2-126-43.2c-1.1-1-2.5-1.8-4.1-2.1
				c-27.9-6.4-47.5-31-47.5-59.7s19.5-53.2,47.5-59.7c1.5-0.3,2.9-1.1,4.1-2.1c29.5-27,76.5-43.2,126-43.2s96.6,16.2,126.1,43.3
				c1.1,1,2.5,1.8,4,2.1c27.7,6.6,47,31.1,47,59.5s-19.3,53-47,59.5c-1.5,0.3-2.8,1.1-4,2.1C302.3,365.5,255.2,381.7,205.7,381.7z"
				/>
		</g>
		<g id="XMLID_4_">
			<g id="XMLID_47_">
				<path id="XMLID_64_" class="st0" d="M82,240.1h14.4c0,1.2,0.2,2.3,0.8,3.1l9.3,11.5l9.9-12c0.5-0.6,0.8-1.1,0.9-1.5
					c0.1-0.3,0.1-0.8,0.1-1.1h11c-1.8,3.4-2.7,7-2.7,10.8v14.7c0,5.5,0.5,9.3,1.2,11.2h-12.2c0.8-1.9,1.2-5.6,1.2-11.2v-10.8
					l-9.5,12.7l-9.6-12.7v10.8c0,4.7,0.5,8.5,1.2,11.2H85.7c0.8-2.5,1.2-6.2,1.2-11.2v-19.5L82,240.1z"/>
				<path id="XMLID_61_" class="st0" d="M153.9,262.2c0,0.9-0.1,2-0.3,3.4h-13.4c0.3,1.6,1.1,2.9,2.4,4.1s2.8,1.6,4.7,1.6
					c1.2,0,2.4-0.1,3.4-0.5c1-0.3,2.1-0.9,3.3-1.6l-3.1,7.5c-1.7,0.3-3.4,0.6-5.2,0.6c-4.5,0-8.1-1.1-10.8-3.4
					c-2.7-2.3-4.1-5.5-4.1-9.8c0-4.1,1.1-7.2,3.5-9.7c2.4-2.5,5.4-3.7,9-3.7c3.2,0,5.6,1,7.7,3.1
					C152.9,255.8,153.9,258.6,153.9,262.2z M143.1,255.7c-1.1,0-2,0.5-2.5,1.2c-0.6,0.8-0.9,2-1,3.8h6.6
					C146.3,257.4,145.2,255.7,143.1,255.7z"/>
				<path id="XMLID_60_" class="st0" d="M156.1,251.3h9.9v4.7l5-5c1-0.1,1.8-0.2,2.4-0.2c2.4,0,4.2,0.7,5.5,2.1c1.4,1.4,2,3.5,2,6.1
					v11.5c0,2,0.5,4.1,1.2,6.3h-11.3c0.8-2.5,1.2-4.6,1.2-6.3V263c0-2.4-0.2-3.8-0.8-4.4c-0.6-0.6-1.4-0.9-2.4-0.9
					c-0.9,0-1.8,0.2-2.7,0.8v11.3c0,1.9,0.5,4.3,1.2,7h-11.3c0.8-2.4,1.2-4.3,1.2-6v-10.5v-0.7C157.3,256.5,157,253.6,156.1,251.3z"
					/>
				<path id="XMLID_59_" class="st0" d="M184.3,251.3h11.3c-0.8,2.1-1.2,4.6-1.2,7.3v9.3c0,2.1,0.9,3.2,2.8,3.3c1,0,2-0.3,3.2-1.1
					v-11.9c0-2.1-0.5-4.5-1.2-7h11.3c-0.8,2.1-1.2,4.3-1.2,6.3v11.9c0,2.5,0.5,5,1.2,7.3h-10.1v-3.1l-4.7,3.5c-0.3,0-0.8,0-1.4,0
					c-2.5,0-4.6-0.7-6.2-2.1c-1.6-1.5-2.5-3.6-2.5-6.4v-12.2C185.6,254.9,185.1,253.1,184.3,251.3z"/>
				<path id="XMLID_58_" class="st0" d="M213,269.6c1.6,0.9,2.7,1.5,3.6,1.7s1.7,0.3,2.6,0.3c0.8,0,1.5-0.1,2-0.5
					c0.6-0.3,0.9-0.8,0.9-1.5c0-0.8-0.3-1.5-1.1-2.3c-0.8-0.7-1.6-1.4-2.6-2c-1.7-1.2-2.9-2.3-3.6-3.2c-0.7-0.9-1-2.1-1-3.6
					c0-2.4,1-4.3,2.9-5.8c2-1.6,4.5-2.3,7.7-2.3c2,0,4.1,0.3,6.2,0.9v6.1c-1.1-0.6-2.1-0.9-2.8-1.1c-0.7-0.2-1.4-0.3-2.1-0.3
					c-0.9,0-1.6,0.1-2,0.5c-0.5,0.3-0.7,0.7-0.7,1.2c0,0.7,0.6,1.5,1.7,2.3c1.1,0.8,2,1.5,2.7,2c2.7,2,4.1,4.4,4.1,7
					c0,2.1-0.9,4.1-2.7,5.6c-1.8,1.6-4.4,2.3-7.9,2.3c-3.1,0-5.5-0.3-7.8-1.1L213,269.6L213,269.6z"/>
				<path id="XMLID_57_" class="st0" d="M236.1,276.8c0.8-2.7,1.2-4.9,1.2-6.6v-23.2c0-2.3-0.5-4.6-1.2-6.9h23.6l-4.1,7.7
					c-3.3-0.8-6.1-1.2-8.6-1.2v8.7h11.2l-3.8,7.7c-3.2-0.8-5.5-1.2-7.3-1.2v8.1c0,2,0.5,4.4,1.2,7h-12.2V276.8z"/>
				<path id="XMLID_53_" class="st0" d="M263.6,258l1.7-6.2c1.9-0.5,3.4-0.8,4.4-0.9c1-0.1,1.9-0.2,2.8-0.2c3.1,0,5.5,0.8,7.3,2.3
					c1.8,1.6,2.7,4.1,2.7,7.7v10.2v0.3c0,1.6,0.5,3.5,1.2,5.6h-9.4v-2.4l-4.2,2.8c-0.6,0.1-1.1,0.1-1.6,0.1c-1.9,0-3.7-0.7-5.3-1.9
					c-1.6-1.4-2.3-3.1-2.3-5.3c0-3.8,3.3-6.8,9.9-8.7l3.2-1c0-1-0.5-1.9-1.2-2.7c-0.8-0.8-1.9-1.1-3.5-1.1c-0.9,0-1.8,0.1-2.6,0.3
					C266.1,256.9,265,257.4,263.6,258z M268.5,248.2c1.6-2.4,2.7-5.2,3.5-8.4h10.2c-2.6,2.4-5.1,5.2-7.5,8.4H268.5z M193.1,247.9
					c1.6-2.4,2.7-5.2,3.5-8.4h10.2c-2.6,2.4-5.1,5.2-7.5,8.4H193.1z M269.7,266.2c-0.7,1-1,1.9-1,2.9c0,0.7,0.2,1.4,0.7,1.9
					c0.5,0.6,1.1,0.9,2,0.9c0.3,0,0.7,0,1-0.1c0.3-0.1,0.9-0.2,1.7-0.6v-5.1H269.7z"/>
				<path id="XMLID_52_" class="st0" d="M307.1,269.3l-3.3,7.3c-1.5,0.5-3.1,0.7-4.6,0.7c-4,0-7.2-1.2-9.8-3.6
					c-2.6-2.4-3.8-5.5-3.8-9.5c0-3.8,1.4-7.1,4.1-9.7c2.7-2.6,6.2-3.8,10.5-3.8c1.9,0,4,0.3,6,0.9l-0.5,6.6c-1.2-0.7-2.1-1-2.8-1.2
					c-0.7-0.2-1.4-0.3-2-0.3c-1.8,0-3.4,0.6-4.5,1.8c-1.2,1.2-1.8,2.9-1.8,5.2c0,2,0.6,3.8,1.6,5.3c1.1,1.5,2.7,2.3,4.9,2.3
					c1.5,0,2.7-0.2,3.7-0.8C305.7,270,306.5,269.6,307.1,269.3z"/>
				<path id="XMLID_49_" class="st0" d="M309,276.8c0.8-2.3,1.2-4.2,1.2-6v-12.5c0-2.3-0.5-4.5-1.2-7h11.3c-0.8,2.1-1.2,4.4-1.2,6.7
					v13.7c0,2,0.5,3.8,1.2,5.2H309z M309.4,243.7c0-1.4,0.5-2.5,1.4-3.5c0.9-1,2.3-1.6,3.8-1.6c1.5,0,2.7,0.5,3.7,1.5
					c1,1,1.6,2.3,1.6,3.6s-0.5,2.6-1.4,3.6c-0.9,1-2.1,1.5-3.6,1.5c-1.8,0-3.1-0.5-4.1-1.5C309.9,246.3,309.4,245,309.4,243.7z"/>
				<path id="XMLID_48_" class="st0" d="M323.4,241.2l11.3-1.1c-0.8,1.9-1.2,4.5-1.2,7.7v22c0,2.1,0.5,4.5,1.2,7h-11.3
					c0.8-2,1.2-5,1.2-8.7v-18.8v-1.1C324.7,245.2,324.2,242.9,323.4,241.2z"/>
			</g>
			<g id="XMLID_8_">
				<path id="XMLID_46_" class="st0" d="M92.1,299.8v-7.1c0-0.1,0-0.3,0-0.5c0-0.1,0-0.9,0.1-2c-0.3,1.5-0.7,2.5-0.8,3.2l-1.9,6.6
					H88l-1.9-6.6l-0.9-3.3c0.1,1.2,0.1,2.1,0.1,2.6v7.1h-2v-11.8h3.1l1.9,6.6l0.1,0.7l0.3,1.6l0.5-1.9l1.9-6.9h2.9v11.8L92.1,299.8
					L92.1,299.8z"/>
				<path id="XMLID_43_" class="st0" d="M103.7,299.8l-0.9-3.1h-4.1l-0.9,3.1h-2.3l3.8-11.8h2.6l3.8,11.8H103.7z M100.7,289.9v0.2
					c0,0.2-0.1,0.5-0.2,0.7c-0.1,0.2-0.5,1.7-1.4,4.2h3.1l-1-3.4l-0.3-1.1L100.7,289.9z"/>
				<path id="XMLID_42_" class="st0" d="M113.8,299.8l-4.6-9c0.1,0.9,0.1,1.6,0.1,2.1v6.9h-2v-11.8h2.6l4.7,9.2
					c-0.1-0.8-0.1-1.6-0.1-2.3v-6.9h2v11.8H113.8z"/>
				<path id="XMLID_39_" class="st0" d="M126,299.8l-0.9-3.1h-4.1l-0.9,3.1h-2.3l3.8-11.8h2.6l3.8,11.8H126z M123.1,289.9v0.2
					c0,0.2-0.1,0.5-0.2,0.7c-0.1,0.2-0.5,1.7-1.4,4.2h3.1l-1-3.4l-0.3-1.1L123.1,289.9z"/>
				<path id="XMLID_38_" class="st0" d="M134.7,298c0.6,0,1.1-0.1,1.7-0.2c0.6-0.2,1-0.5,1.2-0.7v-1.6h-2.6v-1.8h4.6v4.3
					c-0.6,0.7-1.4,1.1-2.3,1.5c-0.9,0.3-1.8,0.6-2.8,0.6c-1.7,0-3.1-0.6-4-1.6c-0.9-1-1.4-2.6-1.4-4.5c0-1.9,0.5-3.4,1.4-4.4
					c0.9-1,2.3-1.6,4.1-1.6c2.5,0,4.1,1,4.7,3.1l-2,0.7c-0.2-0.6-0.6-1-1-1.4c-0.5-0.3-1-0.5-1.7-0.5c-1,0-1.8,0.3-2.4,1
					c-0.6,0.7-0.8,1.7-0.8,3.1s0.2,2.4,0.8,3.1C132.9,297.7,133.7,298,134.7,298z"/>
				<path id="XMLID_37_" class="st0" d="M141.7,299.8v-11.8h8.4v1.9H144v2.9h5.6v1.9H144v3.1h6.4v1.9L141.7,299.8L141.7,299.8z"/>
				<path id="XMLID_34_" class="st0" d="M159.5,299.8l-2.5-4.5h-2.6v4.5h-2.3v-11.8h5.3c1.2,0,2.3,0.3,2.9,0.9s1,1.5,1,2.6
					c0,0.8-0.2,1.6-0.7,2.1s-1,1-1.7,1.1l2.9,5L159.5,299.8L159.5,299.8z M159.1,291.7c0-1.1-0.7-1.7-1.9-1.7h-2.8v3.5h2.9
					c0.7,0,1.1-0.1,1.5-0.5C159,292.7,159.1,292.3,159.1,291.7z"/>
				<path id="XMLID_31_" class="st0" d="M177.1,293.9c0,1.2-0.2,2.3-0.7,3.2s-1,1.6-1.8,2c-0.8,0.5-1.7,0.7-2.7,0.7h-4.3V288h3.8
					c1.8,0,3.2,0.5,4.2,1.5C176.7,290.6,177.1,292.1,177.1,293.9z M174.9,293.9c0-1.2-0.3-2.3-0.9-2.9c-0.6-0.7-1.5-1-2.6-1h-1.5
					v7.9h1.9c0.9,0,1.7-0.3,2.3-1.1C174.6,295.9,174.9,295.1,174.9,293.9z"/>
				<path id="XMLID_30_" class="st0" d="M178.8,299.8v-11.8h8.4v1.9h-6.1v2.9h5.6v1.9h-5.6v3.1h6.4v1.9L178.8,299.8L178.8,299.8z"/>
				<path id="XMLID_27_" class="st0" d="M202.2,291.8c0,0.8-0.1,1.5-0.5,2c-0.3,0.6-0.8,1-1.4,1.4c-0.6,0.3-1.2,0.5-2,0.5h-2.6v4.2
					h-2.3v-11.8h4.7c1.2,0,2.3,0.3,2.9,1C201.9,289.8,202.2,290.6,202.2,291.8z M199.9,291.8c0-1.2-0.7-1.8-2-1.8h-2.3v3.8h2.4
					c0.6,0,1.1-0.1,1.5-0.5C199.8,293,199.9,292.5,199.9,291.8z"/>
				<path id="XMLID_26_" class="st0" d="M203.8,299.8v-11.8h8.4v1.9H206v2.9h5.6v1.9H206v3.1h6.4v1.9L203.8,299.8L203.8,299.8z"/>
				<path id="XMLID_23_" class="st0" d="M223.7,293.9c0,1.2-0.2,2.3-0.7,3.2s-1,1.6-1.8,2c-0.8,0.5-1.7,0.7-2.7,0.7h-4.3V288h3.8
					c1.8,0,3.2,0.5,4.2,1.5C223.1,290.6,223.7,292.1,223.7,293.9z M221.4,293.9c0-1.2-0.3-2.3-0.9-2.9c-0.6-0.7-1.5-1-2.6-1h-1.6
					v7.9h1.9c0.9,0,1.7-0.3,2.3-1.1C221.1,295.9,221.4,295.1,221.4,293.9z"/>
				<path id="XMLID_22_" class="st0" d="M225.4,299.8v-11.8h2.3v11.8H225.4z"/>
				<path id="XMLID_19_" class="st0" d="M239.1,293.9c0,1.2-0.2,2.3-0.7,3.2s-1,1.6-1.8,2c-0.8,0.5-1.7,0.7-2.7,0.7h-4.3V288h3.8
					c1.8,0,3.2,0.5,4.2,1.5C238.6,290.6,239.1,292.1,239.1,293.9z M236.9,293.9c0-1.2-0.3-2.3-0.9-2.9c-0.6-0.7-1.5-1-2.6-1h-1.6
					v7.9h1.9c0.9,0,1.7-0.3,2.3-1.1C236.5,295.9,236.9,295.1,236.9,293.9z"/>
				<path id="XMLID_16_" class="st0" d="M251.2,294c0,1.2-0.2,2.3-0.7,3.3c-0.5,0.9-1,1.7-1.9,2.1c-0.8,0.5-1.8,0.8-2.8,0.8
					c-1.7,0-2.9-0.6-4-1.6c-0.9-1.1-1.5-2.6-1.5-4.5c0-1.9,0.5-3.4,1.5-4.4c0.9-1,2.3-1.6,4-1.6c1.7,0,3.1,0.6,4,1.6
					C250.7,290.6,251.2,292.1,251.2,294z M248.9,294c0-1.2-0.2-2.3-0.8-2.9c-0.6-0.7-1.4-1.1-2.3-1.1c-1,0-1.8,0.3-2.3,1
					c-0.6,0.7-0.8,1.7-0.8,2.9c0,1.2,0.2,2.3,0.8,3.1c0.6,0.8,1.4,1.1,2.3,1.1c1,0,1.8-0.3,2.3-1.1
					C248.6,296.2,248.9,295.2,248.9,294z"/>
				<path id="XMLID_15_" class="st0" d="M261.5,296.5c0,1.1-0.3,2-1.1,2.6c-0.8,0.6-1.9,0.9-3.4,0.9c-1.4,0-2.5-0.2-3.2-0.8
					c-0.7-0.6-1.2-1.4-1.5-2.4l2.1-0.3c0.1,0.7,0.5,1.1,0.9,1.4c0.5,0.2,1,0.5,1.8,0.5c1.6,0,2.4-0.6,2.4-1.6c0-0.3-0.1-0.6-0.2-0.8
					c-0.2-0.2-0.5-0.5-0.8-0.6s-0.9-0.3-1.9-0.6c-0.8-0.2-1.4-0.3-1.7-0.5c-0.3-0.1-0.6-0.2-0.9-0.5c-0.2-0.2-0.5-0.3-0.7-0.6
					c-0.2-0.2-0.3-0.6-0.5-0.8c-0.1-0.2-0.1-0.7-0.1-1.1c0-1,0.3-1.9,1.1-2.5c0.7-0.6,1.8-0.8,3.2-0.8c1.4,0,2.3,0.2,2.9,0.7
					c0.7,0.5,1.1,1.2,1.2,2.3l-2.1,0.3c-0.1-0.5-0.3-0.9-0.7-1.1c-0.3-0.2-0.8-0.3-1.5-0.3c-1.4,0-2,0.5-2,1.4
					c0,0.3,0.1,0.6,0.2,0.8c0.1,0.2,0.3,0.3,0.7,0.5c0.3,0.1,0.9,0.3,1.7,0.6c1,0.2,1.8,0.5,2.1,0.7c0.5,0.2,0.8,0.5,1,0.7
					c0.2,0.2,0.5,0.6,0.6,1C261.4,295.9,261.5,296,261.5,296.5z"/>
				<path id="XMLID_14_" class="st0" d="M272.5,295v4.9h-2.3V295l-3.8-6.9h2.4l2.6,5l2.6-5h2.4L272.5,295z"/>
				<path id="XMLID_13_" class="st0" d="M290.4,299.8v-7.1c0-0.1,0-0.3,0-0.5c0-0.1,0-0.9,0.1-2c-0.3,1.5-0.7,2.5-0.8,3.2l-1.9,6.6
					h-1.6l-1.9-6.6l-0.8-3.2c0.1,1.2,0.1,2.1,0.1,2.6v7.1h-2v-11.8h2.9l1.9,6.6l0.1,0.7l0.3,1.6l0.5-1.9l1.9-6.9h2.9V300h-1.8V299.8
					z"/>
				<path id="XMLID_12_" class="st0" d="M294.5,299.8v-11.8h8.4v1.9h-6.1v2.9h5.6v1.9h-5.6v3.1h6.4v1.9L294.5,299.8L294.5,299.8z"/>
				<path id="XMLID_11_" class="st0" d="M311.3,299.8l-4.6-9c0.1,0.9,0.1,1.6,0.1,2.1v6.9h-2v-11.8h2.6l4.7,9.2
					c-0.1-0.8-0.1-1.6-0.1-2.3v-6.9h2v11.8H311.3z"/>
				<path id="XMLID_10_" class="st0" d="M320.5,300.1c-1.5,0-2.6-0.3-3.4-1.1s-1.1-1.9-1.1-3.4v-7.3h2.3v7.1c0,0.9,0.2,1.6,0.6,2.1
					c0.5,0.5,1,0.7,1.8,0.7s1.4-0.2,1.8-0.8c0.5-0.6,0.7-1.2,0.7-2.1v-7.1h2.3v7.2c0,1.5-0.5,2.6-1.2,3.5S322,300.1,320.5,300.1z"/>
				<path id="XMLID_9_" class="st0" d="M336,296.5c0,1.1-0.3,2-1.1,2.6c-0.8,0.6-1.9,0.9-3.4,0.9c-1.4,0-2.5-0.2-3.2-0.8
					c-0.7-0.6-1.2-1.4-1.5-2.4l2.1-0.3c0.1,0.7,0.5,1.1,0.9,1.4c0.5,0.2,1,0.5,1.8,0.5c1.6,0,2.4-0.6,2.4-1.6c0-0.3-0.1-0.6-0.2-0.8
					c-0.2-0.2-0.5-0.5-0.8-0.6c-0.3-0.1-0.9-0.3-1.9-0.6c-0.8-0.2-1.4-0.3-1.7-0.5c-0.3-0.1-0.6-0.2-0.9-0.5
					c-0.2-0.2-0.5-0.3-0.7-0.6c-0.2-0.2-0.3-0.6-0.5-0.8c-0.1-0.2-0.1-0.7-0.1-1.1c0-1,0.3-1.9,1.1-2.5c0.7-0.6,1.8-0.8,3.2-0.8
					c1.4,0,2.3,0.2,2.9,0.7c0.7,0.5,1.1,1.2,1.2,2.3l-2.1,0.3c-0.1-0.5-0.3-0.9-0.7-1.1c-0.3-0.2-0.8-0.3-1.5-0.3
					c-1.4,0-2,0.5-2,1.4c0,0.3,0.1,0.6,0.2,0.8c0.1,0.2,0.3,0.3,0.7,0.5c0.3,0.1,0.9,0.3,1.7,0.6c1,0.2,1.8,0.5,2.1,0.7
					c0.5,0.2,0.8,0.5,1,0.7c0.2,0.2,0.5,0.6,0.6,1S336,296,336,296.5z"/>
			</g>
			
				<linearGradient id="XMLID_125_" gradientUnits="userSpaceOnUse" x1="109.0685" y1="169.6721" x2="300.6549" y2="169.6721" gradientTransform="matrix(1 0 0 -1 0 498)">
				<stop  offset="0" style="stop-color:#7D1E1A"/>
				<stop  offset="0.205" style="stop-color:#AC3633"/>
				<stop  offset="0.4022" style="stop-color:#D95253"/>
				<stop  offset="0.5" style="stop-color:#EB6062"/>
				<stop  offset="0.5978" style="stop-color:#D95253"/>
				<stop  offset="0.795" style="stop-color:#AC3633"/>
				<stop  offset="1" style="stop-color:#7D1E1A"/>
			</linearGradient>
			<path id="XMLID_5_" class="st3" d="M214.6,332.7c4.5,0.7,9.3,10.8,3.5,9.9c-21-3.2-15-34.7,6.3-26.9c13,4.7,20.8,17.9,34.7,20.5
				c7.5,1.4,16.4,1.6,23.5-1.6c3.6-1.6,8.5-4.3,8.7-8.8c0.5-11.4-9.2-3.8-8.2-2.5c4.1,6.3-4.2,7.2-7.3,2.3
				c-6.3-9.8,2.7-19.2,13.2-15.5c8.4,2.9,14.7,15.8,10.8,24.2c-5.6,12.3-23.7,14.5-35.6,12.3c-8.4-1.6-16.2-4.5-22.8-10.1
				c-3.8-3.2-7.8-7.6-12.3-9.7c-2.3-1.2-4.7-1.9-7.3-2.1C216.3,324.5,213.9,327.2,214.6,332.7L214.6,332.7z M195.4,332.7
				c-4.5,0.7-9.3,10.8-3.5,9.9c21-3.2,15-34.7-6.3-26.9c-13,4.7-20.8,17.9-34.7,20.5c-7.5,1.4-16.4,1.6-23.5-1.6
				c-3.6-1.6-8.5-4.3-8.7-8.8c-0.5-11.4,9.2-3.8,8.2-2.5c-4.1,6.3,4.2,7.2,7.3,2.3c6.3-9.8-2.7-19.2-13.2-15.5
				c-8.4,2.9-14.7,15.8-10.8,24.2c5.6,12.3,23.7,14.5,35.6,12.3c8.4-1.6,16.2-4.5,22.8-10.1c3.8-3.2,7.8-7.6,12.3-9.7
				c2.3-1.2,4.7-1.9,7.3-2.1C193.7,324.5,196,327.2,195.4,332.7L195.4,332.7z"/>
		</g>
	</g>
</g>
</svg>
